<svg width="302" height="302" viewBox="0 0 302 302" fill="none" xmlns="http://www.w3.org/2000/svg">
<path d="M139.705 129.074C131.421 122.982 127.984 113.414 131.583 107.083C131.777 106.734 131.997 106.386 132.243 106.06C136.858 99.7764 147.688 99.889 156.432 106.312C165.172 112.743 168.518 123.045 163.897 129.327C162.676 130.988 161.024 132.197 159.091 132.966C153.705 135.113 146.138 133.799 139.705 129.074M194.405 54.656C147.875 20.4518 90.2295 19.8434 65.6439 53.2924C63.2714 56.5173 61.2953 59.9425 59.7074 63.524C44.7596 97.1179 63.3401 144.872 105.381 175.771C120.39 186.798 136.554 194.335 152.391 198.359C160.22 200.348 167.974 201.48 175.463 201.754C199.8 202.64 221.404 194.458 234.136 177.133C235.871 174.774 237.395 172.311 238.709 169.753C256.069 136.056 237.645 86.4361 194.405 54.656" fill="#F5AF41"/>
<path d="M181.494 197.846C180.319 197.846 179.135 197.825 177.945 197.781C176.94 197.745 175.934 197.693 174.92 197.625C174.874 194.705 174.89 191.791 175.145 189.31C177.591 189.574 180.016 189.749 182.416 189.837C183.605 189.88 184.787 189.901 185.964 189.901C204.893 189.901 221.944 184.281 234.124 173.01C233.529 173.935 232.903 174.848 232.246 175.743C227.756 181.851 222.105 186.778 215.588 190.524C205.607 195.408 193.958 197.846 181.494 197.846M147.409 192.236C133.998 187.914 120.52 181.097 107.864 171.798C75.4475 147.973 56.9792 114.129 57.0746 84.4786C57.5225 77.3426 59.1282 70.5168 61.9684 64.2209C62.2027 64.2794 62.4442 64.3219 62.6914 64.3468C58.9733 83.7785 64.3847 106.153 77.4098 126.813C75.4643 133.148 76.383 138.703 80.2142 142.46C82.7724 144.97 86.2362 146.23 89.9643 146.23C90.7339 146.23 91.5156 146.177 92.302 146.069C98.2097 152.411 104.903 158.394 112.332 163.854C113.479 164.697 114.634 165.52 115.795 166.323C115.982 169.923 116.765 173.124 119.08 175.505C121.54 178.033 125.425 179.262 130.941 179.262C131.209 179.262 131.482 179.259 131.755 179.253C133.266 179.221 134.676 178.768 135.884 177.945C140.578 180.165 145.305 182.078 150.029 183.679C149.215 185.944 148.249 188.909 147.409 192.236" fill="#CC8145"/>
<path d="M170.382 128.863C169.317 128.737 168.241 128.565 167.159 128.348C170.372 121.043 166.597 110.873 157.821 104.423C152.995 100.877 147.547 99.1083 142.62 99.1083C138.829 99.1083 135.345 100.156 132.694 102.246C131.897 100.667 131.223 99.0723 130.675 97.4763C133.916 94.5446 138.372 93.0693 143.237 93.0693C148.882 93.0693 155.085 95.055 160.596 99.0551C171.612 107.052 175.83 120.168 170.382 128.863Z" fill="#CC8145"/>
<path d="M162.517 127.149C157.483 125.558 152.401 123.007 147.634 119.503C142.469 115.707 138.214 111.181 135.079 106.375C136.932 104.611 139.586 103.738 142.578 103.738C146.502 103.738 151.006 105.241 155.042 108.207C162.351 113.581 165.535 121.852 162.517 127.149" fill="#BA73C9"/>
<path d="M163.898 129.329H163.902H163.898ZM142.578 103.739C139.029 103.739 135.957 104.965 134.132 107.45C132.357 109.864 132.026 113.18 133.195 116.787C134.456 120.67 137.261 124.361 141.096 127.18C148.78 132.829 158.16 133.167 162.004 127.937C165.85 122.706 162.725 113.857 155.041 108.207C151.006 105.241 146.5 103.739 142.578 103.739M153.515 136.279C148.588 136.279 143.14 134.511 138.314 130.965C133.693 127.567 130.289 123.047 128.728 118.237C127.079 113.151 127.653 108.332 130.347 104.669C135.725 97.351 148.05 97.2423 157.823 104.423C167.593 111.605 171.169 123.4 165.789 130.719C163.066 134.422 158.566 136.279 153.515 136.279M120.759 30.9476C97.676 30.9476 78.8045 39.3548 67.5389 54.6819C43.7621 87.0313 61.3619 140.502 106.772 173.879C152.182 207.255 208.47 208.091 232.246 175.743C256.022 143.393 238.422 89.922 193.013 56.5449C170.903 40.293 145.602 31.2051 121.771 30.9534C121.433 30.9495 121.095 30.9476 120.759 30.9476ZM179.029 204.172C178.674 204.172 178.321 204.171 177.964 204.167C153.157 203.904 126.886 194.492 103.991 177.663C81.0944 160.834 64.2687 138.571 56.6141 114.974C48.869 91.1023 51.4054 68.7009 63.7542 51.8999C76.1032 35.0988 96.7117 25.9746 121.821 26.2568C146.628 26.52 172.898 35.9321 195.793 52.7598C218.691 69.5876 235.514 91.8517 243.17 115.451C250.916 139.322 248.38 161.722 236.031 178.523C223.856 195.087 203.642 204.172 179.029 204.172Z" fill="#6D184E"/>
<path d="M195.937 121.921C186.449 134.828 164.2 134.593 146.243 121.394C131.159 110.307 123.905 93.6025 127.591 80.8888C127.85 80.2021 132.776 67.5598 142.141 78.2227C151.766 89.182 153.586 91.0864 165.326 87.5946C177.066 84.1048 169.925 105.622 181.779 107.47C193.633 109.318 199.836 111.02 195.937 121.921M195.429 52.2813C172.996 35.7945 148.049 26.9254 125.284 25.7077L125.295 25.6983C94.3085 21.6062 75.8947 32.5129 67.0166 43.4216C59.0561 53.1988 58.7612 62.9798 63.9419 61.9498C65.7692 61.5858 67.3363 61.507 68.688 61.6214C68.5508 62.2669 68.4129 62.9104 68.2927 63.5802C62.7959 94.2779 95.8645 100.102 83.331 119.795C70.7973 139.487 86.7619 149.284 99.526 140.808L99.6153 140.749C105.301 137.036 113.056 139.288 115.963 145.426C117.401 148.464 118.541 152.119 118.411 155.938C118.016 167.598 115.851 177.249 131.705 176.905C136.381 176.805 138.448 171.202 137.236 166.653C134.497 156.362 147.92 153.914 153.132 160.787C154.374 162.424 155.275 164.148 155.62 165.786C156.162 170.713 155.417 176.38 153.28 181.726C148.061 194.787 140.905 223.103 161.994 225.399C172.728 226.566 172.949 214.671 172.685 202.776C172.432 191.3 171.724 179.825 179.573 180.079C195.553 180.596 197.234 188.544 212.105 177.649C226.975 166.754 234.801 159.463 241.131 162.779C247.462 166.096 247.531 141.011 247.531 141.011C247.274 110.798 228.374 76.4965 195.429 52.2813Z" fill="#FF33BB"/>
<path d="M105.01 87.8317C104.206 87.8317 103.424 87.5811 102.758 87.1051C101.915 86.5014 101.358 85.6046 101.188 84.5817L99.6094 75.0395C99.2587 72.9274 100.693 70.9241 102.805 70.5742C103.019 70.5395 103.234 70.5222 103.446 70.5222C104.252 70.5222 105.032 70.7712 105.699 71.2488C106.543 71.8525 107.1 72.7477 107.269 73.7707L108.849 83.3144C109.018 84.3373 108.78 85.365 108.176 86.2083C107.571 87.0515 106.676 87.6095 105.653 87.7781C105.439 87.8144 105.223 87.8317 105.01 87.8317" fill="#D32B9A"/>
<path d="M146.97 66.4152C145.964 66.4152 145.016 66.035 144.288 65.337L137.3 58.6495C135.753 57.169 135.699 54.7066 137.18 53.1602C137.898 52.4116 138.863 51.9857 139.899 51.9637C139.933 51.962 139.966 51.962 139.999 51.962C141.002 51.962 141.944 52.3456 142.669 53.0402L149.657 59.7277C151.203 61.2082 151.258 63.6706 149.777 65.217C149.059 65.9657 148.094 66.3916 147.056 66.4135C147.027 66.4152 146.999 66.4152 146.97 66.4152" fill="#D32B9A"/>
<path d="M193.849 100.601C192.4 100.316 190.823 100.057 189.131 99.7927C184.981 99.146 183.158 96.0845 182.038 92.5303C182.194 91.2673 182.966 90.1034 184.193 89.5055C184.738 89.2416 185.316 89.1165 185.885 89.1165C187.325 89.1165 188.712 89.9188 189.383 91.2978L193.614 99.9971C193.71 100.194 193.788 100.397 193.849 100.601" fill="#D32B9A"/>
<path d="M124.191 138.522C124.072 138.522 123.952 138.517 123.833 138.507C123.772 138.501 123.712 138.493 123.652 138.486C123.541 138.236 123.43 137.991 123.315 137.749C122.592 136.221 121.568 134.934 120.351 133.92L121.191 124.656C121.373 122.64 123.071 121.125 125.059 121.125C125.174 121.125 125.291 121.13 125.407 121.14C126.44 121.234 127.374 121.724 128.039 122.52C128.703 123.317 129.017 124.325 128.923 125.358L128.05 134.99C127.956 136.023 127.465 136.958 126.669 137.622C125.965 138.208 125.096 138.522 124.191 138.522Z" fill="#D32B9A"/>
<path d="M97.3464 119.554C96.0541 119.554 94.7903 118.911 94.0534 117.739C92.9142 115.927 93.4615 113.525 95.2752 112.386L103.464 107.239C104.104 106.835 104.818 106.644 105.524 106.644C106.816 106.644 108.081 107.287 108.818 108.459C109.957 110.271 109.409 112.673 107.596 113.812L99.4067 118.96C98.7673 119.362 98.0521 119.554 97.3464 119.554Z" fill="#D32B9A"/>
<path d="M170.41 171.919C169.119 171.919 167.854 171.277 167.117 170.104C165.979 168.292 166.526 165.891 168.338 164.751L176.527 159.603C177.168 159.201 177.881 159.009 178.587 159.009C179.88 159.009 181.144 159.652 181.88 160.825C183.02 162.637 182.473 165.039 180.661 166.178L172.47 171.325C171.831 171.728 171.116 171.919 170.41 171.919Z" fill="#D32B9A"/>
<path d="M198.356 149.212C197.829 149.212 197.306 149.103 196.809 148.887C195.857 148.474 195.124 147.714 194.744 146.75L191.199 137.75C190.819 136.786 190.838 135.729 191.251 134.779C191.666 133.828 192.425 133.095 193.39 132.714C193.851 132.533 194.332 132.443 194.813 132.443C195.338 132.443 195.864 132.55 196.361 132.766C197.31 133.181 198.044 133.939 198.424 134.904L201.969 143.905C202.349 144.869 202.332 145.925 201.917 146.874C201.503 147.827 200.745 148.559 199.779 148.939C199.318 149.121 198.836 149.212 198.356 149.212Z" fill="#D32B9A"/>
<path d="M179.729 74.2732C179.367 74.2732 179.003 74.2214 178.646 74.1179L169.353 71.4349C167.296 70.8397 166.107 68.6839 166.701 66.6267C167.192 64.9286 168.748 63.8223 170.435 63.8223C170.789 63.8223 171.15 63.8709 171.507 63.9744L180.802 66.6591C182.857 67.2542 184.048 69.41 183.454 71.4656C183.166 72.4635 182.508 73.2867 181.599 73.788C181.017 74.1098 180.376 74.2732 179.729 74.2732" fill="#D32B9A"/>
<path d="M214.703 121.624C214.347 121.624 213.985 121.575 213.628 121.471L204.335 118.787C203.338 118.498 202.514 117.839 202.011 116.932C201.877 116.685 201.769 116.43 201.69 116.168C202.257 115.563 202.791 114.921 203.29 114.243C203.658 113.215 203.936 112.267 204.128 111.395C204.536 111.251 204.971 111.174 205.415 111.174C205.769 111.174 206.132 111.222 206.49 111.326L215.781 114.011C217.839 114.606 219.028 116.761 218.434 118.819C217.943 120.517 216.388 121.624 214.703 121.624Z" fill="#D32B9A"/>
<path d="M223.075 162.98C223.024 162.98 222.973 162.979 222.919 162.977C221.885 162.936 220.926 162.494 220.222 161.733C219.517 160.972 219.152 159.982 219.193 158.946C219.233 157.909 219.675 156.951 220.435 156.247L227.537 149.679C228.263 149.01 229.193 148.648 230.176 148.648C230.226 148.648 230.275 148.648 230.325 148.651C231.361 148.69 232.32 149.132 233.024 149.894C234.478 151.465 234.382 153.927 232.809 155.38L225.707 161.948C224.985 162.616 224.055 162.98 223.075 162.98" fill="#D32B9A"/>
<path d="M204.758 97.6349C203.925 97.6349 203.118 97.3685 202.439 96.8608C201.608 96.2374 201.072 95.3293 200.924 94.3038C200.621 92.1842 202.097 90.2137 204.217 89.9104L213.791 88.5381C213.979 88.5113 214.165 88.4978 214.349 88.4978C215.184 88.4978 215.991 88.7659 216.67 89.2753C217.499 89.897 218.039 90.8052 218.185 91.8306C218.332 92.8578 218.071 93.8799 217.449 94.7093C216.827 95.5387 215.919 96.0783 214.894 96.224L205.318 97.5964C205.132 97.6232 204.944 97.6349 204.758 97.6349" fill="#D32B9A"/>
<path d="M141.818 150.394C141.796 150.394 141.774 150.394 141.751 150.394C140.714 150.376 139.747 149.956 139.025 149.21C137.537 147.672 137.578 145.209 139.118 143.721L146.07 136.996C146.823 136.269 147.797 135.907 148.769 135.907C149.785 135.907 150.801 136.302 151.559 137.089C152.281 137.833 152.669 138.816 152.651 139.852C152.635 140.889 152.215 141.858 151.469 142.578L144.516 149.302C143.786 150.007 142.829 150.394 141.818 150.394Z" fill="#D32B9A"/>
<path d="M114.902 60.848C113.677 60.848 112.47 60.2696 111.716 59.1925L106.168 51.2697C104.94 49.5171 105.367 47.0909 107.121 45.8631C107.797 45.3886 108.573 45.1618 109.342 45.1618C110.567 45.1618 111.774 45.7384 112.528 46.8156L118.076 54.7384C119.305 56.4927 118.876 58.9188 117.123 60.1467C116.446 60.6194 115.671 60.848 114.902 60.848" fill="#D32B9A"/>
<path d="M99.4506 38.1218C99.3175 39.4541 98.7038 40.6746 97.8845 41.7338C91.24 50.323 99.5112 69.8122 88.6063 70.7578C77.608 71.7089 78.3687 46.9438 85.641 38.897C94.8239 28.7318 100.062 31.9956 99.4506 38.1218Z" fill="#FF5CC9"/>
<path d="M222.372 121.159C222.372 121.159 223.023 135.209 208.227 142.925C193.432 150.64 221.8 155.474 230.095 140.322C238.389 125.17 224.136 112.565 222.372 121.159Z" fill="#FF5CC9"/>
<path d="M245.054 145.587C242.662 115.122 223.058 81.6008 190.297 57.5168C187.342 55.3468 184.351 53.3057 181.319 51.3825C180.171 50.6549 179.02 49.9494 177.865 49.2567C175.416 51.1909 171.975 52.2391 168.24 52.2391C165.64 52.2391 162.897 51.7307 160.247 50.6641C153.029 47.7517 148.921 41.6634 150.091 36.266C149.374 36.021 148.66 35.7797 147.945 35.5476C137.218 32.0439 126.53 30.0157 116.257 29.4686L116.27 29.4612C111.46 28.8275 106.938 28.5346 102.693 28.5346C100.749 28.5346 98.8635 28.5954 97.0352 28.7133C101.691 27.7259 106.829 27.1714 112.46 27.1714C116.322 27.1714 120.419 27.433 124.748 27.993C124.881 28.0262 125.018 28.0446 125.158 28.0519C148.346 29.2935 172.808 38.5687 194.037 54.1733C225.323 77.1686 244.922 110.45 245.183 141.004C245.18 142.54 245.134 144.081 245.054 145.587" fill="#FF99DD"/>
<path d="M195.938 121.92H195.942H195.938ZM129.82 81.6338C126.381 93.6998 133.694 109.256 147.633 119.502C164.388 131.816 185.018 132.366 193.842 120.802C194.912 117.695 195.04 115.525 194.236 114.172C192.793 111.742 187.577 110.75 181.419 109.79C174.043 108.642 172.456 101.563 171.297 96.3955C170.655 93.527 169.988 90.5588 168.691 89.798C168.126 89.4674 167.219 89.4824 165.996 89.8469C152.695 93.8012 150.086 90.8275 140.378 79.7721C138.83 78.01 136.555 75.983 134.524 76.3588C132.173 76.789 130.365 80.2361 129.82 81.6338M174.633 133.753C165.036 133.753 154.345 130.264 144.852 123.287C129.322 111.873 121.297 94.1695 125.336 80.2361C125.353 80.1779 125.371 80.1215 125.393 80.0633C125.852 78.8422 128.407 72.7031 133.679 71.7394C137.051 71.1232 140.49 72.7838 143.906 76.6744C153.263 87.3277 154.24 88.4398 164.658 85.3439C167.177 84.5944 169.334 84.7315 171.068 85.7478C174.124 87.5419 175.017 91.5188 175.881 95.368C177.154 101.047 178.212 104.537 182.14 105.15C190.011 106.376 195.775 107.569 198.273 111.772C199.887 114.488 199.847 117.963 198.149 122.71C198.072 122.925 197.965 123.128 197.83 123.312C192.715 130.272 184.218 133.753 174.633 133.753M144.999 154.566C148.623 154.566 152.479 156.039 155.004 159.368C156.531 161.384 157.512 163.379 157.918 165.3C157.935 165.376 157.946 165.452 157.954 165.529C158.557 171.006 157.672 177.067 155.463 182.598C151.059 193.615 147.638 209.349 152.498 217.435C154.474 220.723 157.664 222.564 162.248 223.064C164.423 223.299 166.043 222.9 167.196 221.839C170.722 218.6 170.497 209.278 170.296 201.052C170.082 192.178 169.879 183.795 173.826 179.883C175.34 178.379 177.299 177.654 179.649 177.732C185.272 177.913 189.256 178.984 192.457 179.844C198.44 181.451 201.735 182.336 210.717 175.755C212.939 174.128 214.972 172.604 216.935 171.131C228.494 162.467 235.486 157.226 242.158 160.666C243.734 159.145 245.157 150.013 245.185 141.004C244.922 110.451 225.325 77.1684 194.037 54.1729C172.809 38.5695 148.347 29.2932 125.159 28.0514C125.019 28.0439 124.882 28.0251 124.749 27.9932C90.3882 23.5391 70.8186 37.9947 64.4955 51.7571C62.2363 56.6752 62.7984 59.3634 63.158 59.6846C63.1529 59.6752 63.2701 59.6884 63.4847 59.6452C65.4042 59.2638 67.2215 59.1417 68.885 59.2807C69.5564 59.3371 70.172 59.679 70.5742 60.22C70.9754 60.761 71.1253 61.4486 70.9854 62.108L70.9715 62.1756C70.8443 62.773 70.7162 63.3722 70.605 63.9959C68.0041 78.5172 74.6657 87.1042 80.5428 94.6804C86.6323 102.529 92.3843 109.944 85.3125 121.055C80.4473 128.697 79.7711 135.447 83.503 139.108C86.8578 142.398 93.0495 142.29 98.2276 138.853L98.3347 138.782C101.588 136.657 105.627 136.05 109.414 137.117C113.237 138.196 116.398 140.859 118.085 144.421C119.985 148.432 120.884 152.334 120.759 156.017C120.721 157.153 120.665 158.27 120.612 159.362C120.335 164.969 120.096 169.811 122.448 172.229C124.068 173.894 127.081 174.655 131.655 174.558C132.637 174.537 133.423 174.114 134.06 173.267C135.168 171.793 135.533 169.378 134.969 167.258C133.63 162.231 135.45 157.812 139.72 155.727C141.264 154.971 143.1 154.566 144.999 154.566M163.4 227.826C162.862 227.826 162.31 227.795 161.741 227.732C155.681 227.073 151.217 224.422 148.472 219.854C141.251 207.836 148.658 186.965 151.101 180.855C153.013 176.069 153.793 170.859 153.3 166.164C153.024 164.969 152.32 163.602 151.262 162.206C148.982 159.198 144.518 158.608 141.781 159.946C139.523 161.049 138.738 163.159 139.506 166.049C140.438 169.542 139.773 173.483 137.815 176.089C136.32 178.077 134.167 179.2 131.756 179.253C125.805 179.378 121.66 178.155 119.081 175.504C115.305 171.621 115.603 165.553 115.921 159.13C115.974 158.063 116.028 156.969 116.065 155.858C116.165 152.929 115.416 149.758 113.841 146.431C112.734 144.095 110.656 142.348 108.139 141.638C105.659 140.939 103.02 141.33 100.9 142.716L100.836 142.757C93.698 147.497 85.2221 147.372 80.215 142.46C74.782 137.132 75.206 128.187 81.3502 118.534C86.6472 110.211 82.7424 105.178 76.8317 97.5584C70.7817 89.7604 63.278 80.0877 65.8372 64.0222C65.3715 64.0786 64.8919 64.1537 64.4003 64.2533C62.2899 64.6722 60.4239 63.9753 59.2799 62.3409C57.0286 59.1248 58.114 52.8617 62.0457 46.3862C64.6943 42.0261 70.9794 33.875 83.3264 28.2693C95.1967 22.8816 109.42 21.2323 125.603 23.3701C125.618 23.3719 125.634 23.3738 125.648 23.3757C149.667 24.7151 174.934 34.3033 196.819 50.3895C229.275 74.2435 249.605 108.959 249.881 140.991C249.879 141.218 249.86 146.003 249.308 151.19C248.23 161.304 246.135 163.782 244.431 164.81C243.086 165.621 241.529 165.638 240.043 164.859C235.976 162.727 229.869 167.306 219.753 174.889C217.778 176.369 215.736 177.9 213.491 179.543C202.695 187.456 197.89 186.166 191.24 184.38C188.118 183.541 184.577 182.59 179.497 182.426C178.135 182.383 177.494 182.857 177.132 183.216C174.624 185.705 174.819 193.799 174.992 200.939C175.225 210.613 175.467 220.617 170.375 225.297C168.547 226.978 166.204 227.826 163.4 227.826" fill="#6D184E"/>
<path d="M185.814 108.149C185.744 108.137 185.673 108.124 185.603 108.11C185.673 108.124 185.744 108.137 185.814 108.149Z" fill="#6D184E"/>
<path d="M184.856 107.977C184.747 107.956 184.634 107.937 184.523 107.92C184.634 107.937 184.747 107.956 184.856 107.977Z" fill="#6D184E"/>
<path d="M182.84 107.639C182.49 107.583 182.137 107.526 181.777 107.471C182.137 107.526 182.49 107.583 182.84 107.639Z" fill="#6D184E"/>
<path d="M140.023 76.1363C139.917 76.0468 139.812 75.9604 139.707 75.8786C139.812 75.9604 139.917 76.0468 140.023 76.1363Z" fill="#6D184E"/>
<path d="M142.105 78.1819C141.856 77.8996 141.611 77.6388 141.368 77.3888C141.611 77.6388 141.856 77.8996 142.105 78.1819Z" fill="#6D184E"/>
<path d="M197.065 117.111C197.065 117.087 197.069 117.063 197.07 117.039C197.069 117.063 197.065 117.087 197.065 117.111Z" fill="#6D184E"/>
<path d="M197.072 115.75C197.071 115.733 197.067 115.716 197.067 115.699C197.067 115.716 197.071 115.733 197.072 115.75Z" fill="#6D184E"/>
<path d="M192.765 110.106C192.729 110.09 192.694 110.073 192.657 110.056C192.694 110.073 192.729 110.09 192.765 110.106Z" fill="#6D184E"/>
<path d="M190.068 109.125C189.987 109.103 189.907 109.079 189.826 109.056C189.907 109.079 189.987 109.103 190.068 109.125Z" fill="#6D184E"/>
<path d="M191.502 109.59C191.442 109.569 191.381 109.547 191.319 109.525C191.381 109.547 191.442 109.569 191.502 109.59Z" fill="#6D184E"/>
<path d="M186.739 108.33C186.612 108.304 186.481 108.279 186.353 108.253C186.481 108.279 186.612 108.304 186.739 108.33Z" fill="#6D184E"/>
<path d="M139.257 75.5377C139.146 75.4588 139.036 75.383 138.928 75.3103C139.036 75.383 139.146 75.4588 139.257 75.5377Z" fill="#6D184E"/>
<path d="M196.862 118.618C196.865 118.598 196.87 118.576 196.875 118.555C196.87 118.576 196.865 118.598 196.862 118.618Z" fill="#6D184E"/>
<path d="M141.207 77.2268C140.964 76.9805 140.722 76.7481 140.483 76.5341C140.722 76.7481 140.964 76.9805 141.207 77.2268Z" fill="#6D184E"/>
<path d="M136.298 74.1205C136.231 74.1049 136.165 74.0909 136.099 74.0785C136.165 74.0909 136.231 74.1049 136.298 74.1205Z" fill="#6D184E"/>
<path d="M134.744 73.9763C134.788 73.9748 134.83 73.9732 134.873 73.9716C134.83 73.9732 134.788 73.9748 134.744 73.9763ZM135.184 73.9732C135.124 73.9717 135.064 73.9701 135.005 73.9701C135.007 73.9701 135.009 73.9701 135.01 73.9701C135.036 73.9701 135.063 73.9716 135.089 73.9716C135.122 73.9716 135.152 73.9717 135.184 73.9732ZM135.001 73.9701C135.002 73.9701 135.004 73.9701 135.005 73.9701C135.004 73.9701 135.002 73.9701 135.001 73.9701Z" fill="#6D184E"/>
<path d="M196.688 119.425C196.692 119.409 196.696 119.394 196.699 119.378C196.696 119.394 196.692 119.409 196.688 119.425Z" fill="#6D184E"/>
<path d="M138.424 74.9949C138.319 74.9313 138.215 74.8724 138.111 74.8166C138.215 74.8724 138.319 74.9313 138.424 74.9949Z" fill="#6D184E"/>
<path d="M137.716 74.6224C137.632 74.5836 137.549 74.5463 137.465 74.5091C137.549 74.5463 137.632 74.5836 137.716 74.6224Z" fill="#6D184E"/>
<path d="M136.857 74.2742C136.812 74.2603 136.767 74.2463 136.722 74.2323C136.767 74.2463 136.812 74.2603 136.857 74.2742Z" fill="#6D184E"/>
<path d="M196.988 117.847C196.991 117.822 196.994 117.799 196.998 117.776C196.994 117.799 196.991 117.822 196.988 117.847Z" fill="#6D184E"/>
<path d="M130.888 174.566C126.743 174.566 123.976 173.8 122.447 172.229C120.096 169.811 120.335 164.969 120.611 159.362C120.665 158.271 120.721 157.154 120.759 156.017C120.882 152.334 119.985 148.432 118.085 144.422C116.397 140.86 113.236 138.196 109.413 137.118C108.187 136.773 106.935 136.603 105.691 136.603C103.094 136.603 100.534 137.344 98.3343 138.781L98.227 138.853C95.5676 140.618 92.6419 141.505 89.9695 141.505C87.4382 141.505 85.1342 140.709 83.5026 139.108C79.7706 135.448 80.4469 128.698 85.312 121.056C92.3837 109.944 86.6318 102.53 80.5423 94.6805C74.6652 87.1041 68.0037 78.5173 70.6045 63.9964C70.7157 63.3731 70.8439 62.7742 70.9709 62.1752L70.9848 62.1092C71.1249 61.4495 70.9749 60.762 70.5737 60.2221C70.1716 59.6804 69.5558 59.3366 68.8845 59.2811C68.4416 59.2446 67.9888 59.2255 67.5249 59.2255C66.247 59.2255 64.8933 59.3662 63.4841 59.6457C63.2697 59.6891 63.1525 59.6752 63.1574 59.6856C62.798 59.3644 62.2358 56.6752 64.4951 51.7585C65.6202 49.3088 67.1664 46.8348 69.1407 44.4512C66.9173 50.0883 67.5885 54.347 70.5758 54.3453C70.8022 54.3453 71.0414 54.3227 71.2947 54.2724C72.6164 54.0085 73.8022 53.8956 74.8678 53.8956C75.276 53.8956 75.6671 53.9113 76.0406 53.9425C75.9036 54.5884 75.7666 55.2325 75.6465 55.9043C70.1487 86.6006 103.217 92.4253 90.6835 112.118C81.2295 126.971 87.9884 136.195 97.358 136.193C100.411 136.193 103.743 135.214 106.88 133.13C106.908 133.111 106.938 133.09 106.968 133.073C108.846 131.846 110.949 131.269 113.029 131.269C115.679 131.269 118.292 132.205 120.351 133.92L120.316 134.288C120.224 135.321 120.537 136.33 121.202 137.127C121.827 137.875 122.691 138.354 123.653 138.486C124.927 141.37 125.884 144.747 125.764 148.259C125.405 158.879 123.578 167.83 135.228 169.085C135.269 170.659 134.856 172.208 134.059 173.267C133.422 174.114 132.636 174.537 131.653 174.558C131.394 174.563 131.139 174.566 130.888 174.566" fill="#D32B9A"/>
<path d="M123.653 138.485C122.691 138.355 121.826 137.875 121.202 137.126C120.538 136.329 120.223 135.321 120.317 134.288L120.35 133.919C121.568 134.934 122.592 136.22 123.315 137.748C123.43 137.99 123.543 138.236 123.653 138.485Z" fill="#B42583"/>
<path d="M130.9 176.914C115.925 176.914 118.023 167.397 118.411 155.938C118.541 152.119 117.4 148.463 115.962 145.426C114.015 141.315 109.894 138.947 105.676 138.947C103.596 138.947 101.492 139.522 99.6152 140.749C99.5853 140.769 99.5556 140.788 99.5257 140.808C96.3886 142.891 93.0589 143.87 90.0052 143.87C80.6354 143.87 73.8774 134.646 83.3306 119.795C95.8643 100.101 62.7947 94.2779 68.2924 63.5802C68.4126 62.9108 68.5506 62.2663 68.6877 61.6201C68.3133 61.5898 67.923 61.572 67.5148 61.572C66.4482 61.572 65.2625 61.6859 63.9417 61.9476C63.6884 61.9993 63.4482 62.0242 63.2218 62.0242C57.8164 62.0242 59.9932 48.0666 73.2071 37.2495C71.369 39.7473 70.0254 42.2077 69.1406 44.4508C67.1662 46.8347 65.62 49.3075 64.4949 51.7572C62.2357 56.6744 62.7977 59.3626 63.1572 59.6849C63.1522 59.676 63.2695 59.6884 63.4838 59.6457C64.8931 59.3662 66.2467 59.2238 67.5248 59.2238C67.9885 59.2238 68.4414 59.2433 68.8842 59.2807C69.5556 59.3359 70.1714 59.6795 70.5735 60.2207C70.9746 60.7619 71.1247 61.4491 70.9846 62.1078L70.9707 62.1755C70.8436 62.7737 70.7156 63.3719 70.6043 63.995C68.0035 78.5169 74.665 87.1051 80.542 94.6802C86.6317 102.53 92.3835 109.945 85.3117 121.055C80.4467 128.698 79.7704 135.447 83.5024 139.108C85.1341 140.708 87.438 141.504 89.9694 141.504C92.6418 141.504 95.5673 140.617 98.2268 138.853L98.3341 138.782C100.534 137.343 103.094 136.603 105.691 136.603C106.935 136.603 108.186 136.772 109.413 137.117C113.236 138.196 116.397 140.859 118.084 144.42C119.984 148.431 120.883 152.334 120.759 156.017C120.72 157.153 120.664 158.27 120.611 159.362C120.335 164.969 120.095 169.811 122.447 172.229C123.976 173.8 126.743 174.566 130.889 174.566C131.138 174.566 131.393 174.563 131.655 174.558C132.636 174.537 133.422 174.114 134.06 173.267C134.857 172.207 135.269 170.659 135.228 169.085C135.956 169.163 136.737 169.212 137.574 169.229C137.597 173.077 135.521 176.823 131.704 176.905C131.43 176.911 131.163 176.914 130.9 176.914" fill="#6D184E"/>
<path d="M199.294 118.362C199.689 115.727 199.347 113.582 198.272 111.773C195.773 107.57 190.01 106.377 182.14 105.149C178.21 104.537 177.153 101.046 175.879 95.3683C175.015 91.52 174.123 87.5418 171.068 85.7474C170.068 85.1626 168.927 84.8678 167.66 84.8678C166.727 84.8678 165.725 85.0265 164.656 85.3453C161.45 86.297 159.138 86.8513 157.201 86.8513C152.843 86.8513 150.381 84.0475 143.905 76.6744C141.157 73.5438 138.393 71.8568 135.66 71.6389C136.734 69.5849 138.983 66.2877 142.384 66.2877C144.366 66.2877 146.739 67.4076 149.495 70.5462C156.286 78.2814 159.191 81.5049 164.441 81.5049C166.63 81.5049 169.225 80.9442 172.678 79.9172C173.557 79.656 174.33 79.5359 175.012 79.5359C180.259 79.5359 180.202 86.6991 182.038 92.5309C181.95 93.2487 182.062 93.9985 182.401 94.6954L186.633 103.394C187.086 104.326 187.876 105.026 188.856 105.366C189.271 105.508 189.699 105.58 190.125 105.58C190.707 105.58 191.284 105.447 191.822 105.186C192.754 104.733 193.455 103.943 193.793 102.963C194.06 102.189 194.078 101.372 193.849 100.601C201.594 102.125 205.679 104.339 204.128 111.395C202.984 111.797 202.044 112.728 201.683 113.979C201.472 114.705 201.478 115.459 201.69 116.167C200.946 116.962 200.147 117.693 199.294 118.362" fill="#D32B9A"/>
<path d="M190.126 105.579C189.699 105.579 189.271 105.509 188.856 105.366C187.876 105.027 187.086 104.327 186.633 103.395L182.401 94.6965C182.062 93.9987 181.95 93.2491 182.039 92.5315C183.158 96.0843 184.979 99.1455 189.131 99.7929C190.824 100.057 192.4 100.317 193.849 100.602C194.078 101.372 194.059 102.19 193.792 102.964C193.455 103.944 192.755 104.734 191.821 105.187C191.284 105.448 190.707 105.579 190.126 105.579" fill="#B42583"/>
<path d="M201.691 116.167C201.479 115.46 201.472 114.704 201.683 113.978C202.044 112.727 202.984 111.797 204.128 111.394C203.936 112.268 203.658 113.213 203.289 114.242C202.792 114.92 202.258 115.562 201.691 116.167Z" fill="#B42583"/>
<path d="M196.47 120.254V120.252C196.552 119.969 196.624 119.693 196.688 119.427C196.692 119.409 196.696 119.395 196.699 119.379C196.761 119.12 196.815 118.866 196.861 118.618C196.866 118.598 196.87 118.576 196.875 118.556C196.919 118.312 196.957 118.077 196.988 117.846C196.991 117.823 196.994 117.799 196.998 117.776C197.012 117.663 197.024 117.55 197.037 117.438C197.048 117.328 197.057 117.22 197.065 117.112C197.057 117.22 197.048 117.328 197.037 117.438C197.048 117.328 197.057 117.22 197.065 117.112C197.067 117.087 197.068 117.063 197.07 117.04C197.084 116.825 197.092 116.616 197.093 116.412C197.093 116.409 197.093 116.407 197.093 116.404C197.093 116.385 197.093 116.368 197.093 116.349C197.092 116.245 197.092 116.145 197.087 116.046C197.084 115.946 197.079 115.847 197.073 115.75C197.07 115.732 197.068 115.715 197.067 115.699C197.052 115.508 197.032 115.323 197.005 115.142C197.004 115.136 197.002 115.13 197.002 115.123C196.999 115.114 196.998 115.103 196.996 115.092C196.98 114.996 196.965 114.902 196.946 114.81C196.927 114.715 196.905 114.624 196.883 114.533V114.53C196.696 113.79 196.392 113.138 195.974 112.559C195.439 111.817 194.719 111.195 193.828 110.663C193.765 110.626 193.7 110.588 193.634 110.552C193.534 110.494 193.429 110.437 193.324 110.383C193.303 110.372 193.283 110.361 193.263 110.35C193.14 110.285 193.016 110.226 192.887 110.164C192.847 110.146 192.806 110.125 192.764 110.106C192.729 110.091 192.693 110.073 192.655 110.056C192.494 109.982 192.326 109.912 192.156 109.841C192.106 109.822 192.059 109.802 192.009 109.781C191.925 109.75 191.842 109.717 191.758 109.684C191.673 109.653 191.588 109.621 191.502 109.59C191.442 109.568 191.381 109.546 191.32 109.526C191.152 109.466 190.979 109.408 190.805 109.351C190.734 109.329 190.664 109.306 190.592 109.284C190.419 109.231 190.245 109.177 190.067 109.125C189.986 109.104 189.906 109.078 189.824 109.056C189.738 109.033 189.648 109.008 189.559 108.984C189.471 108.959 189.38 108.936 189.291 108.912C189.201 108.889 189.11 108.865 189.019 108.841C188.84 108.797 188.66 108.752 188.478 108.708C188.376 108.685 188.274 108.661 188.17 108.637C187.991 108.597 187.809 108.556 187.626 108.515C187.607 108.51 187.586 108.507 187.566 108.502C187.472 108.482 187.378 108.462 187.282 108.443C187.103 108.405 186.922 108.368 186.739 108.33C186.612 108.305 186.482 108.28 186.353 108.255C186.174 108.218 185.995 108.184 185.813 108.151C185.744 108.138 185.673 108.124 185.603 108.112C185.532 108.099 185.46 108.087 185.389 108.072C185.214 108.041 185.036 108.008 184.856 107.977C184.746 107.956 184.634 107.938 184.523 107.919C184.468 107.911 184.413 107.9 184.36 107.892C184.193 107.864 184.032 107.836 183.862 107.806C183.655 107.773 183.443 107.737 183.231 107.702C183.101 107.682 182.973 107.66 182.841 107.639C182.491 107.583 182.138 107.526 181.778 107.471C170.809 105.761 176.104 87.2131 167.658 87.2131C166.976 87.2131 166.203 87.3339 165.326 87.596C161.87 88.6223 159.277 89.1826 157.088 89.1826C151.84 89.1826 148.932 85.9592 142.14 78.224C142.128 78.2099 142.117 78.1957 142.104 78.1832C141.855 77.9007 141.61 77.6402 141.367 77.3907C141.313 77.3358 141.26 77.2793 141.208 77.2259C140.963 76.9795 140.722 76.7488 140.483 76.5338C140.438 76.493 140.391 76.4522 140.343 76.4114C140.237 76.3173 140.128 76.2247 140.023 76.1368C139.917 76.0473 139.811 75.9626 139.706 75.8794C139.669 75.8496 139.629 75.8167 139.59 75.7868C139.479 75.7005 139.366 75.6189 139.256 75.5389C139.145 75.4604 139.035 75.3851 138.926 75.3113C138.864 75.2705 138.802 75.2313 138.741 75.1921C138.636 75.1246 138.529 75.0587 138.424 74.9959C138.319 74.9331 138.214 74.8735 138.112 74.8186C138.063 74.7935 138.018 74.7731 137.971 74.7479C137.884 74.704 137.801 74.6616 137.716 74.6224C137.633 74.5832 137.549 74.5455 137.465 74.5094C137.401 74.4812 137.334 74.4513 137.269 74.4262C137.13 74.3697 136.993 74.3211 136.856 74.2756C136.811 74.2615 136.765 74.2473 136.721 74.2332C136.684 74.2222 136.646 74.2112 136.61 74.2018C136.572 74.1908 136.536 74.1814 136.5 74.172C136.433 74.1532 136.365 74.1375 136.296 74.1202C136.23 74.1061 136.164 74.092 136.097 74.0794C136.003 74.0606 135.907 74.0433 135.813 74.0292C135.684 74.0119 135.555 73.9962 135.43 73.9884C135.348 73.9821 135.267 73.9758 135.185 73.9743C135.152 73.9727 135.121 73.9711 135.089 73.9711C135.063 73.9711 135.036 73.9711 135.009 73.9711C135.008 73.9711 135.006 73.9711 135.005 73.9711C135.003 73.9711 135.002 73.9711 135 73.9711C134.958 73.9711 134.915 73.9711 134.874 73.9727C134.83 73.9743 134.788 73.9758 134.744 73.9774C134.808 73.7232 134.87 73.4658 134.943 73.2131C134.995 73.075 135.234 72.4552 135.661 71.6391C138.393 71.8573 141.156 73.5443 143.904 76.6751C150.381 84.0493 152.843 86.8521 157.2 86.8521C159.138 86.8521 161.449 86.2982 164.657 85.3456C165.724 85.027 166.727 84.8685 167.659 84.8685C168.927 84.8685 170.068 85.1635 171.066 85.7489C174.122 87.5426 175.014 91.5208 175.879 95.3688C177.152 101.047 178.21 104.538 182.139 105.15C190.009 106.378 195.773 107.57 198.272 111.773C199.347 113.582 199.687 115.728 199.295 118.363C198.405 119.061 197.462 119.692 196.47 120.254M196.688 119.427C196.624 119.693 196.552 119.969 196.47 120.252C196.552 119.969 196.624 119.693 196.688 119.427ZM196.861 118.618C196.815 118.866 196.761 119.12 196.699 119.379C196.761 119.12 196.815 118.866 196.861 118.618ZM197.093 116.412C197.092 116.616 197.084 116.825 197.07 117.04C197.084 116.825 197.092 116.616 197.093 116.412Z" fill="#6D184E"/>
<path d="M197.07 117.04C197.084 116.825 197.092 116.615 197.093 116.413C197.092 116.615 197.084 116.825 197.07 117.04Z" fill="#6D184E"/>
<path d="M197.067 115.699C197.051 115.509 197.033 115.323 197.005 115.142C197.033 115.323 197.051 115.509 197.067 115.699ZM197.005 115.142C197.004 115.136 197.002 115.13 197.002 115.124C197.002 115.13 197.004 115.136 197.005 115.142Z" fill="#6D184E"/>
<path d="M196.997 117.775C197.011 117.662 197.025 117.55 197.036 117.438C197.025 117.55 197.011 117.662 196.997 117.775ZM197.036 117.438C197.047 117.329 197.057 117.219 197.065 117.111C197.057 117.219 197.047 117.329 197.036 117.438Z" fill="#6D184E"/>
<path d="M196.996 115.091C196.98 114.997 196.963 114.903 196.945 114.809C196.963 114.903 196.98 114.997 196.996 115.091ZM196.945 114.809C196.926 114.716 196.906 114.625 196.883 114.534C196.906 114.625 196.926 114.716 196.945 114.809Z" fill="#6D184E"/>
<path d="M192.656 110.056C192.494 109.983 192.325 109.911 192.155 109.842C192.325 109.911 192.494 109.983 192.656 110.056Z" fill="#6D184E"/>
<path d="M193.829 110.663C193.764 110.625 193.702 110.588 193.636 110.551C193.702 110.588 193.764 110.625 193.829 110.663ZM193.636 110.551C193.534 110.493 193.43 110.437 193.325 110.382C193.43 110.437 193.534 110.493 193.636 110.551Z" fill="#6D184E"/>
<path d="M193.263 110.349C193.141 110.286 193.016 110.224 192.887 110.165C193.016 110.224 193.141 110.285 193.263 110.349ZM192.887 110.165C192.847 110.145 192.806 110.125 192.764 110.107C192.806 110.125 192.847 110.145 192.887 110.165Z" fill="#6D184E"/>
<path d="M196.471 120.252C196.552 119.968 196.623 119.694 196.688 119.425C196.623 119.694 196.552 119.968 196.471 120.252Z" fill="#6D184E"/>
<path d="M196.875 118.555C196.92 118.313 196.957 118.078 196.988 117.848C196.957 118.076 196.92 118.313 196.875 118.555Z" fill="#6D184E"/>
<path d="M196.698 119.381C196.762 119.12 196.816 118.867 196.862 118.618C196.816 118.867 196.762 119.12 196.698 119.381Z" fill="#6D184E"/>
<path d="M137.467 74.5088C137.4 74.4808 137.333 74.4514 137.27 74.425C137.333 74.4514 137.4 74.4808 137.467 74.5088Z" fill="#6D184E"/>
<path d="M136.099 74.0781C136.003 74.0594 135.908 74.0423 135.814 74.0283C135.908 74.0423 136.003 74.0594 136.099 74.0781Z" fill="#6D184E"/>
<path d="M136.721 74.233C136.684 74.2221 136.647 74.2112 136.609 74.2003C136.647 74.2112 136.684 74.2221 136.721 74.233ZM136.609 74.2003C136.574 74.191 136.536 74.1801 136.499 74.1708C136.536 74.1801 136.574 74.191 136.609 74.2003Z" fill="#6D184E"/>
<path d="M138.925 75.3114C138.864 75.2712 138.803 75.2309 138.742 75.1922C138.803 75.2309 138.864 75.2712 138.925 75.3114Z" fill="#6D184E"/>
<path d="M138.112 74.8168C138.064 74.792 138.017 74.7718 137.971 74.747C138.017 74.7718 138.064 74.792 138.112 74.8168Z" fill="#6D184E"/>
<path d="M192.008 109.783C191.926 109.749 191.842 109.716 191.757 109.684C191.842 109.716 191.926 109.749 192.008 109.783ZM191.757 109.684C191.672 109.653 191.587 109.621 191.501 109.59C191.587 109.621 191.672 109.653 191.757 109.684Z" fill="#6D184E"/>
<path d="M139.708 75.8789C139.669 75.8496 139.63 75.8156 139.592 75.7863C139.63 75.8156 139.669 75.8496 139.708 75.8789Z" fill="#6D184E"/>
<path d="M196.882 114.531C196.697 113.79 196.391 113.138 195.974 112.56C196.391 113.138 196.697 113.79 196.882 114.531ZM195.974 112.56C195.439 111.816 194.719 111.196 193.828 110.663C194.719 111.196 195.439 111.816 195.974 112.56Z" fill="#6D184E"/>
<path d="M141.368 77.3896C141.314 77.3343 141.262 77.2791 141.208 77.2253C141.262 77.2791 141.314 77.3343 141.368 77.3896Z" fill="#6D184E"/>
<path d="M135.431 73.9873C135.349 73.9811 135.266 73.9749 135.186 73.9733C135.266 73.9749 135.349 73.9811 135.431 73.9873Z" fill="#6D184E"/>
<path d="M197.093 116.349C197.091 116.246 197.091 116.145 197.087 116.045C197.091 116.145 197.091 116.246 197.093 116.349ZM197.087 116.045C197.084 115.946 197.077 115.847 197.071 115.75C197.079 115.847 197.084 115.946 197.087 116.045Z" fill="#6D184E"/>
<path d="M188.171 108.638C187.99 108.596 187.81 108.556 187.625 108.514C187.81 108.556 187.99 108.596 188.171 108.638Z" fill="#6D184E"/>
<path d="M189.019 108.842C188.84 108.797 188.66 108.752 188.478 108.708C188.66 108.752 188.84 108.797 189.019 108.842Z" fill="#6D184E"/>
<path d="M140.484 76.5327C140.438 76.4911 140.391 76.4511 140.344 76.411C140.391 76.4511 140.438 76.4911 140.484 76.5327Z" fill="#6D184E"/>
<path d="M190.592 109.283C190.421 109.23 190.246 109.177 190.068 109.124C190.246 109.177 190.421 109.23 190.592 109.283Z" fill="#6D184E"/>
<path d="M191.321 109.524C191.153 109.464 190.981 109.407 190.806 109.351C190.981 109.407 191.153 109.464 191.321 109.524Z" fill="#6D184E"/>
<path d="M189.825 109.057C189.738 109.033 189.65 109.007 189.56 108.983C189.65 109.007 189.738 109.033 189.825 109.057ZM189.56 108.983C189.471 108.959 189.381 108.935 189.291 108.913C189.381 108.935 189.471 108.959 189.56 108.983Z" fill="#6D184E"/>
<path d="M187.284 108.441C187.104 108.404 186.924 108.366 186.74 108.329C186.924 108.366 187.104 108.404 187.284 108.441Z" fill="#6D184E"/>
<path d="M184.361 107.891C184.195 107.863 184.032 107.835 183.863 107.806C184.032 107.835 184.195 107.863 184.361 107.891Z" fill="#6D184E"/>
<path d="M183.232 107.703C183.101 107.681 182.972 107.66 182.841 107.638C182.972 107.66 183.101 107.681 183.232 107.703Z" fill="#6D184E"/>
<path d="M185.389 108.073C185.213 108.042 185.036 108.008 184.854 107.977C185.036 108.008 185.213 108.042 185.389 108.073Z" fill="#6D184E"/>
<path d="M186.352 108.254C186.173 108.22 185.994 108.184 185.812 108.15C185.994 108.184 186.173 108.22 186.352 108.254Z" fill="#6D184E"/>
<path d="M163.396 223.13C163.031 223.13 162.648 223.108 162.246 223.064C160.968 222.925 159.8 222.682 158.734 222.331C162.624 222.021 166.967 219.701 166.785 210.813C166.47 195.521 157.473 172.344 184.682 172.344C185.804 172.344 186.989 172.383 188.238 172.464C188.309 172.468 188.524 172.48 188.561 172.483L188.559 172.485C198.304 173.1 202.311 175.709 206.79 175.709C208.649 175.709 210.589 175.26 213.054 174.03C212.297 174.593 211.519 175.168 210.716 175.756C205.26 179.752 201.904 180.996 198.768 180.996C196.74 180.996 194.805 180.475 192.456 179.845C189.254 178.985 185.269 177.914 179.648 177.732C179.534 177.729 179.421 177.727 179.307 177.727C177.108 177.727 175.265 178.453 173.824 179.883C169.877 183.796 170.081 192.179 170.295 201.053C170.495 209.278 170.721 218.6 167.196 221.84C166.253 222.705 165.004 223.13 163.396 223.13M230.26 161.935C236.069 157.669 240.451 154.84 244.133 154.37C243.59 157.599 242.89 159.958 242.156 160.666C240.742 159.938 239.317 159.599 237.835 159.599C235.499 159.599 233.025 160.443 230.26 161.935Z" fill="#D32B9A"/>
<path d="M163.026 225.232C157.349 225.232 152.818 221.545 152.818 221.545C152.818 221.545 155.062 222.37 157.754 222.37C158.075 222.37 158.404 222.358 158.734 222.331C159.8 222.681 160.97 222.925 162.247 223.064C162.649 223.108 163.033 223.129 163.397 223.129C165.005 223.129 166.255 222.704 167.196 221.839C170.721 218.6 170.495 209.278 170.296 201.052C170.081 192.178 169.878 183.796 173.825 179.883C175.266 178.453 177.109 177.727 179.307 177.727C179.422 177.727 179.535 177.729 179.649 177.732C185.27 177.914 189.256 178.984 192.457 179.844C194.807 180.475 196.742 180.995 198.768 180.995C201.905 180.995 205.262 179.752 210.717 175.756C211.519 175.168 212.297 174.593 213.055 174.03C214.854 173.134 216.929 171.823 219.456 169.971C223.554 166.97 227.116 164.242 230.261 161.935C233.026 160.442 235.499 159.598 237.836 159.598C239.318 159.598 240.743 159.938 242.157 160.666C242.891 159.958 243.592 157.598 244.134 154.37C244.494 154.323 244.847 154.3 245.195 154.3C245.644 154.3 246.082 154.339 246.513 154.419C245.768 159.042 244.475 163.082 242.237 163.081C241.891 163.081 241.523 162.985 241.132 162.779C240.083 162.231 238.997 161.973 237.843 161.973C232.02 161.973 224.516 168.556 212.105 177.649C206.132 182.025 202.286 183.363 198.785 183.363C193.711 183.363 189.363 180.551 180.322 180.114C180.322 180.114 179.878 179.879 179.22 179.879C177.73 179.879 175.143 181.089 174.113 188.99C172.629 200.381 175.704 220.859 167.965 224.215C166.277 224.946 164.608 225.232 163.026 225.232" fill="#6D184E"/>
<path d="M103.968 69.1233C102.421 69.3787 101.374 70.8397 101.63 72.3864L103.21 81.9297C103.467 83.4764 104.927 84.5218 106.474 84.2664C108.022 84.011 109.068 82.5484 108.811 81.0017L107.232 71.4599C106.977 69.9117 105.514 68.8663 103.968 69.1233" fill="#0DF4FF"/>
<path d="M104.432 70.128C104.336 70.128 104.237 70.1359 104.138 70.1519C103.665 70.2299 103.251 70.488 102.972 70.8784C102.693 71.2671 102.582 71.7435 102.66 72.2151L104.24 81.7585C104.401 82.7351 105.326 83.3947 106.305 83.237C106.778 83.1589 107.192 82.9008 107.471 82.5105C107.75 82.1202 107.86 81.6454 107.782 81.1722L106.203 71.6288C106.058 70.7525 105.295 70.128 104.432 70.128V70.128ZM106.008 85.348C104.145 85.348 102.495 83.997 102.181 82.0994L100.601 72.556C100.432 71.5332 100.671 70.5055 101.275 69.6627C101.879 68.8199 102.775 68.2623 103.797 68.0918C105.911 67.7429 107.912 69.1768 108.263 71.2878L109.842 80.8312C110.01 81.8557 109.771 82.8817 109.168 83.7261C108.564 84.5689 107.668 85.125 106.646 85.2954C106.432 85.3305 106.219 85.348 106.008 85.348" fill="#6D184E"/>
<path d="M138.928 51.3986C137.843 52.5312 137.882 54.3288 139.014 55.4122L146.002 62.101C147.135 63.1843 148.931 63.1452 150.016 62.0125C151.099 60.8799 151.06 59.0822 149.928 57.9989L142.94 51.3118C141.809 50.2268 140.011 50.2659 138.928 51.3986" fill="#0DF4FF"/>
<path d="M139.681 52.1209C138.997 52.8354 139.021 53.9729 139.737 54.6584L146.724 61.3467C147.438 62.0305 148.577 62.0049 149.261 61.2904C149.594 60.9442 149.771 60.4906 149.759 60.0097C149.749 59.5322 149.551 59.0854 149.207 58.7529L142.218 52.0646C141.872 51.7338 141.407 51.5479 140.938 51.5666C140.458 51.5769 140.012 51.773 139.681 52.1209V52.1209ZM147.964 63.9302C146.998 63.9302 146.031 63.5738 145.281 62.8542L138.293 56.1659C136.746 54.6857 136.693 52.2232 138.172 50.6765C138.889 49.9278 139.855 49.5032 140.892 49.4793C141.922 49.4708 142.912 49.8391 143.663 50.5571L150.649 57.2454C151.4 57.9616 151.824 58.9285 151.847 59.9654C151.869 61.0022 151.487 61.9862 150.769 62.7348C150.008 63.5295 148.987 63.9302 147.964 63.9302" fill="#6D184E"/>
<path d="M185.642 87.9629C184.233 88.6492 183.646 90.3473 184.332 91.7566L188.564 100.455C189.249 101.865 190.947 102.451 192.358 101.767C193.769 101.08 194.354 99.3808 193.669 97.9715L189.437 89.2728C188.751 87.8635 187.053 87.2766 185.642 87.9629Z" fill="#0DF4FF"/>
<path d="M185.642 87.9619H185.647H185.642ZM186.883 88.7191C186.615 88.7191 186.347 88.7805 186.099 88.9003V88.9018C185.667 89.1107 185.345 89.4762 185.186 89.9278C185.031 90.3823 185.06 90.8692 185.269 91.2992L189.502 99.998C189.935 100.889 191.012 101.26 191.901 100.827C192.792 100.394 193.163 99.3176 192.73 98.4268L188.498 89.7296C188.289 89.2981 187.923 88.9756 187.47 88.8189C187.278 88.7513 187.08 88.7191 186.883 88.7191ZM191.122 103.094C189.682 103.094 188.296 102.291 187.625 100.912L183.393 92.213C182.939 91.2808 182.877 90.2272 183.214 89.2474C183.554 88.2676 184.254 87.4782 185.186 87.0236C186.119 86.5705 187.171 86.506 188.152 86.8454C189.132 87.1833 189.921 87.8836 190.374 88.8174L194.607 97.5146C195.544 99.4389 194.739 101.767 192.815 102.704C192.269 102.97 191.692 103.094 191.122 103.094Z" fill="#6D184E"/>
<path d="M126.306 119.696C124.745 119.555 123.365 120.705 123.223 122.267L122.35 131.9C122.208 133.461 123.358 134.843 124.92 134.984C126.482 135.126 127.863 133.975 128.003 132.413L128.877 122.78C129.02 121.219 127.868 119.838 126.306 119.696" fill="#0DF4FF"/>
<path d="M126.047 120.728C125.628 120.728 125.226 120.873 124.901 121.144C124.533 121.452 124.306 121.884 124.262 122.36L123.389 131.995C123.346 132.472 123.491 132.939 123.798 133.306C124.105 133.674 124.537 133.901 125.015 133.944C125.998 134.04 126.875 133.304 126.965 132.318L127.838 122.686C127.882 122.208 127.737 121.743 127.429 121.373C127.121 121.005 126.689 120.778 126.212 120.736C126.157 120.73 126.102 120.728 126.047 120.728V120.728ZM125.179 136.04C125.064 136.04 124.944 136.035 124.825 136.023C123.793 135.93 122.858 135.44 122.196 134.644C121.53 133.846 121.217 132.839 121.31 131.807L122.184 122.173C122.376 120.041 124.27 118.467 126.401 118.657C127.434 118.752 128.369 119.24 129.033 120.037C129.697 120.834 130.011 121.841 129.917 122.875L129.043 132.507C128.861 134.521 127.164 136.04 125.179 136.04" fill="#6D184E"/>
<path d="M108.927 106.531C108.091 105.205 106.34 104.805 105.013 105.64L96.8231 110.787C95.4955 111.622 95.0967 113.373 95.9312 114.701C96.7644 116.028 98.5181 116.428 99.8444 115.594L108.034 110.447C109.362 109.611 109.762 107.859 108.927 106.531Z" fill="#FFD00D"/>
<path d="M106.521 106.249C106.194 106.249 105.864 106.337 105.568 106.522L97.3783 111.67C96.9732 111.924 96.6903 112.323 96.5846 112.791C96.4775 113.259 96.5599 113.74 96.8153 114.146C97.3412 114.982 98.4521 115.236 99.2897 114.71L107.479 109.563C108.317 109.035 108.569 107.924 108.043 107.087C107.703 106.546 107.118 106.249 106.521 106.249V106.249ZM98.3408 117.071C97.0487 117.071 95.784 116.428 95.0467 115.256C94.4947 114.378 94.3189 113.339 94.5482 112.327C94.7803 111.315 95.39 110.454 96.2688 109.903L104.458 104.757C106.271 103.617 108.671 104.165 109.811 105.976C110.949 107.788 110.402 110.19 108.59 111.328L100.401 116.478C99.7607 116.88 99.0466 117.071 98.3408 117.071Z" fill="#6D184E"/>
<path d="M181.991 158.897C181.157 157.57 179.405 157.171 178.077 158.005L169.887 163.152C168.56 163.987 168.159 165.738 168.995 167.066C169.829 168.394 171.581 168.793 172.909 167.96L181.097 162.811C182.425 161.977 182.824 160.225 181.991 158.897" fill="#0DF4FF"/>
<path d="M179.582 158.612C179.248 158.612 178.921 158.707 178.631 158.889L170.441 164.036C170.036 164.291 169.754 164.689 169.646 165.156C169.54 165.625 169.621 166.104 169.877 166.51C170.132 166.916 170.531 167.2 170.998 167.306C171.464 167.413 171.944 167.331 172.352 167.076L180.541 161.929C181.379 161.402 181.633 160.291 181.107 159.453C180.85 159.047 180.453 158.764 179.985 158.659C179.851 158.628 179.717 158.612 179.582 158.612V158.612ZM171.404 169.439C171.114 169.439 170.824 169.408 170.534 169.341C169.523 169.111 168.661 168.5 168.11 167.622C167.558 166.745 167.381 165.704 167.611 164.692C167.842 163.681 168.453 162.82 169.331 162.269L177.52 157.122C178.398 156.568 179.438 156.393 180.449 156.624C181.461 156.854 182.321 157.465 182.874 158.343C184.012 160.155 183.464 162.556 181.652 163.696L173.462 168.843C172.837 169.237 172.126 169.439 171.404 169.439Z" fill="#6D184E"/>
<path d="M194.765 131.203C193.306 131.776 192.589 133.425 193.164 134.884L196.709 143.885C197.283 145.344 198.932 146.059 200.391 145.486C201.85 144.911 202.566 143.263 201.992 141.804L198.447 132.804C197.872 131.345 196.224 130.629 194.765 131.203Z" fill="#FFD00D"/>
<path d="M195.147 132.174C194.702 132.35 194.351 132.689 194.159 133.129C193.967 133.567 193.959 134.055 194.135 134.502L197.679 143.502C198.042 144.423 199.087 144.876 200.007 144.514C200.454 144.338 200.805 143.999 200.996 143.56C201.187 143.12 201.197 142.632 201.021 142.186L197.475 133.186C197.299 132.739 196.96 132.388 196.522 132.198C196.081 132.006 195.594 131.997 195.147 132.174ZM199.355 146.726C197.806 146.726 196.34 145.793 195.738 144.267L192.194 135.267C191.408 133.275 192.39 131.016 194.382 130.231C195.347 129.851 196.403 129.87 197.353 130.283C198.305 130.698 199.038 131.456 199.418 132.421L202.962 141.421C203.342 142.385 203.323 143.441 202.91 144.392C202.497 145.343 201.738 146.077 200.774 146.457C200.308 146.639 199.827 146.726 199.355 146.726" fill="#6D184E"/>
<path d="M168.696 64.4333C168.261 65.9409 169.129 67.5137 170.635 67.9484L179.93 70.6331C181.434 71.0694 183.009 70.2017 183.443 68.694C183.878 67.1881 183.01 65.6137 181.504 65.179L172.211 62.4943C170.705 62.0596 169.131 62.9273 168.696 64.4333Z" fill="#FFD00D"/>
<path d="M169.698 64.7253C169.423 65.6753 169.973 66.6728 170.925 66.9475L180.217 69.6309C181.167 69.9073 182.165 69.3562 182.441 68.4061C182.572 67.945 182.52 67.4593 182.288 67.0407C182.055 66.6205 181.674 66.3163 181.215 66.1823L171.92 63.4989C170.97 63.2242 169.973 63.7736 169.698 64.7253ZM180.714 71.7894C180.358 71.7894 179.997 71.7403 179.639 71.6373L170.346 68.9523C168.289 68.3587 167.098 66.2019 167.692 64.1464C168.287 62.0893 170.444 60.9006 172.499 61.4925L181.794 64.1775C182.79 64.4653 183.614 65.1226 184.116 66.0318C184.616 66.9394 184.734 67.9875 184.446 68.985C183.955 70.684 182.399 71.7894 180.714 71.7894" fill="#6D184E"/>
<path d="M203.679 111.785C203.244 113.293 204.112 114.866 205.618 115.301L214.91 117.985C216.416 118.42 217.991 117.552 218.425 116.046C218.86 114.54 217.992 112.967 216.486 112.53L207.194 109.846C205.686 109.411 204.113 110.279 203.679 111.785Z" fill="#0DF4FF"/>
<path d="M204.682 112.075C204.407 113.025 204.956 114.024 205.907 114.298L215.2 116.982C216.151 117.259 217.148 116.706 217.422 115.755C217.697 114.806 217.148 113.808 216.197 113.533L206.904 110.849C205.954 110.574 204.956 111.124 204.682 112.075V112.075ZM215.696 119.141C215.34 119.141 214.979 119.092 214.62 118.989L205.327 116.303C203.27 115.71 202.082 113.552 202.675 111.496C203.27 109.439 205.427 108.253 207.482 108.843L216.775 111.527C218.832 112.122 220.022 114.28 219.429 116.335C218.938 118.033 217.382 119.141 215.696 119.141" fill="#6D184E"/>
<path d="M221.98 158.542C223.044 159.693 224.839 159.763 225.992 158.699L233.093 152.132C234.245 151.067 234.314 149.272 233.25 148.119C232.185 146.968 230.389 146.899 229.238 147.963L222.136 154.531C220.987 155.596 220.916 157.391 221.98 158.542Z" fill="#FFD52B"/>
<path d="M231.164 148.252C230.711 148.252 230.282 148.419 229.947 148.729L222.846 155.296C222.119 155.968 222.075 157.106 222.748 157.833C223.419 158.56 224.557 158.605 225.284 157.933L232.385 151.366C233.112 150.693 233.156 149.555 232.485 148.829C232.159 148.476 231.716 148.271 231.237 148.254C231.212 148.252 231.188 148.252 231.164 148.252ZM224.066 160.495C223.02 160.495 221.979 160.077 221.215 159.25C219.762 157.68 219.858 155.218 221.428 153.764L228.53 147.196C229.292 146.492 230.28 146.126 231.317 146.168C232.355 146.209 233.313 146.649 234.016 147.411C235.469 148.984 235.373 151.444 233.803 152.898L226.701 159.465C225.955 160.154 225.009 160.495 224.066 160.495Z" fill="#6D184E"/>
<path d="M202.95 91.6726C203.173 93.2244 204.611 94.3036 206.163 94.0807L215.738 92.7099C217.288 92.487 218.368 91.0475 218.145 89.4973C217.922 87.9439 216.484 86.8663 214.932 87.0892L205.357 88.46C203.805 88.6829 202.727 90.1207 202.95 91.6726Z" fill="#FFD52B"/>
<path d="M215.339 88.1032C215.253 88.1032 215.167 88.1099 215.08 88.1234L205.505 89.4948C204.524 89.6344 203.843 90.5464 203.983 91.5257C204.052 92.0002 204.299 92.4192 204.683 92.7069C205.066 92.9947 205.539 93.1158 206.014 93.0468L215.59 91.6755C216.569 91.5358 217.252 90.6238 217.112 89.6445C217.043 89.17 216.796 88.751 216.411 88.4616C216.098 88.2277 215.724 88.1032 215.339 88.1032V88.1032ZM205.751 95.1535C204.918 95.1535 204.109 94.886 203.431 94.3778C202.601 93.7552 202.063 92.8483 201.916 91.8202C201.613 89.7034 203.089 87.7313 205.209 87.4268L214.784 86.0554C215.81 85.9107 216.833 86.1698 217.663 86.7924C218.492 87.415 219.031 88.3219 219.177 89.3484C219.482 91.4668 218.004 93.4389 215.886 93.7418L206.31 95.1131C206.123 95.1401 205.936 95.1535 205.751 95.1535" fill="#6D184E"/>
<path d="M140.769 146.002C141.858 147.129 143.656 147.159 144.784 146.07L151.735 139.344C152.863 138.254 152.894 136.458 151.803 135.33C150.714 134.204 148.916 134.173 147.789 135.264L140.835 141.988C139.71 143.078 139.678 144.875 140.769 146.002Z" fill="#FFD52B"/>
<path d="M141.519 145.278C142.207 145.989 143.346 146.007 144.057 145.319L151.01 138.595C151.721 137.907 151.741 136.768 151.054 136.057C150.719 135.712 150.272 135.518 149.792 135.509C149.308 135.488 148.859 135.68 148.515 136.014L141.562 142.738C140.849 143.428 140.83 144.565 141.519 145.278V145.278ZM142.811 147.912C142.789 147.912 142.767 147.911 142.744 147.911C141.708 147.894 140.739 147.474 140.018 146.728C138.53 145.189 138.571 142.726 140.111 141.238L147.063 134.513C147.809 133.793 148.784 133.388 149.828 133.423C150.864 133.44 151.833 133.86 152.554 134.606C154.042 136.146 153.999 138.607 152.462 140.095L145.508 146.819C144.779 147.525 143.824 147.912 142.811 147.912" fill="#6D184E"/>
<path d="M117.516 56.809C118.801 55.9096 119.113 54.1387 118.213 52.8559L112.666 44.9324C111.766 43.6479 109.996 43.3359 108.711 44.2352C107.427 45.1346 107.115 46.9037 108.015 48.1883L113.562 56.1118C114.462 57.3963 116.232 57.7083 117.516 56.809Z" fill="#FFD52B"/>
<path d="M110.336 44.7648C109.972 44.7648 109.616 44.8749 109.311 45.0899C108.918 45.3643 108.656 45.7768 108.572 46.2487C108.489 46.7205 108.595 47.1977 108.87 47.5892L114.418 55.5135C114.693 55.905 115.104 56.1671 115.577 56.251C116.049 56.3349 116.525 56.2283 116.917 55.9539H116.918C117.311 55.6795 117.573 55.267 117.656 54.7951C117.74 54.3232 117.633 53.8461 117.359 53.4546L111.811 45.5303C111.536 45.1371 111.124 44.8749 110.652 44.7928C110.547 44.7736 110.441 44.7648 110.336 44.7648V44.7648ZM115.897 58.3658C115.67 58.3658 115.442 58.3483 115.214 58.3064C114.193 58.1264 113.304 57.5601 112.708 56.7107L107.16 48.7864C106.565 47.937 106.337 46.9076 106.517 45.8851C106.697 44.8644 107.264 43.9731 108.114 43.3806C108.963 42.7846 109.994 42.5557 111.015 42.7357C112.035 42.9175 112.925 43.4837 113.52 44.3331L119.068 52.2574C119.663 53.1068 119.892 54.1362 119.712 55.1587C119.532 56.1794 118.965 57.069 118.115 57.6632C117.455 58.1246 116.686 58.3658 115.897 58.3658" fill="#6D184E"/>
<path d="M151.274 279.705C100.402 279.705 59.1621 274.89 59.1621 268.95C59.1621 263.011 100.402 258.195 151.274 258.195C202.144 258.195 243.384 263.011 243.384 268.95C243.384 274.89 202.144 279.705 151.274 279.705Z" fill="#F2A40C"/>
</svg>
